<svg width="14" height="20" viewBox="0 0 14 20" fill="none" xmlns="http://www.w3.org/2000/svg">
<path d="M7.83178 1.79437C7.83178 1.335 7.45938 0.962597 7 0.962597C6.54062 0.962597 6.16822 1.335 6.16822 1.79437H7.83178ZM6.41185 19.018C6.73667 19.3429 7.26333 19.3429 7.58815 19.018L12.8815 13.7247C13.2064 13.3998 13.2064 12.8732 12.8815 12.5483C12.5567 12.2235 12.0301 12.2235 11.7052 12.5483L7 17.2536L2.29477 12.5483C1.96994 12.2235 1.44329 12.2235 1.11846 12.5483C0.793629 12.8732 0.793629 13.3998 1.11846 13.7247L6.41185 19.018ZM6.16822 1.79437L6.16822 18.4299H7.83178L7.83178 1.79437H6.16822Z" fill="#64FFDA"/>
</svg>
