<svg width="30" height="30" viewBox="0 0 30 30" fill="none" xmlns="http://www.w3.org/2000/svg">
<path d="M17.8125 10.3125C17.5639 10.3125 17.3253 10.2137 17.1496 10.0379C16.9738 9.86215 16.875 9.62359 16.875 9.37499V8.43749C16.875 8.10246 17.0537 7.79297 17.3438 7.62556C17.6338 7.45815 17.9912 7.45815 18.2812 7.62556C18.5713 7.79297 18.75 8.10247 18.75 8.43749V9.37499C18.75 9.62359 18.6512 9.86215 18.4754 10.0379C18.2997 10.2137 18.0611 10.3125 17.8125 10.3125Z" fill="white"/>
<path d="M22.4529 12.2346C22.2043 12.2346 21.966 12.1358 21.7902 11.96C21.6144 11.784 21.5156 11.5457 21.5156 11.2971C21.5156 11.0485 21.6144 10.8101 21.7902 10.6344L22.4529 9.97141C22.6274 9.78998 22.8677 9.68639 23.1194 9.68388C23.3711 9.68158 23.6135 9.78056 23.7913 9.95864C23.9694 10.1367 24.0684 10.3788 24.0659 10.6306C24.0634 10.8823 23.9598 11.1226 23.7784 11.2971L23.1154 11.9598C22.9398 12.136 22.7015 12.2348 22.4529 12.2346L22.4529 12.2346Z" fill="white"/>
<path d="M13.1737 12.2346C12.9251 12.2348 12.6865 12.136 12.511 11.9598L11.848 11.2971C11.6189 11.0588 11.532 10.7175 11.6197 10.3986C11.7074 10.0798 11.9564 9.8308 12.2753 9.74316C12.594 9.65569 12.9355 9.74253 13.1737 9.97168L13.8364 10.6346C14.0122 10.8104 14.111 11.0488 14.111 11.2974C14.111 11.546 14.0122 11.7845 13.8364 11.9603C13.6607 12.1361 13.4223 12.2349 13.1737 12.2349L13.1737 12.2346Z" fill="white"/>
<path d="M25.3125 16.875H24.375C24.04 16.875 23.7305 16.6963 23.5631 16.4062C23.3956 16.1162 23.3956 15.7588 23.5631 15.4688C23.7305 15.1787 24.04 15 24.375 15H25.3125C25.6475 15 25.957 15.1787 26.1244 15.4688C26.2918 15.7588 26.2918 16.1162 26.1244 16.4062C25.957 16.6963 25.6475 16.875 25.3125 16.875Z" fill="white"/>
<path d="M23.1162 22.1782C22.8675 22.1786 22.629 22.0796 22.4534 21.9036L21.7907 21.2407H21.7905C21.5605 21.0025 21.4732 20.6608 21.5607 20.3415C21.6482 20.0221 21.8976 19.7727 22.217 19.6852C22.5363 19.5977 22.878 19.685 23.1162 19.915L23.7791 20.5777V20.5779C23.9549 20.7537 24.0537 20.9921 24.0537 21.2407C24.0534 21.4893 23.9547 21.7278 23.7789 21.9036C23.6031 22.0794 23.3648 22.1782 23.1162 22.1782L23.1162 22.1782Z" fill="white"/>
<path d="M17.8125 24.375C17.5639 24.375 17.3253 24.2762 17.1496 24.1004C16.9738 23.9247 16.875 23.6861 16.875 23.4375V22.5C16.875 22.165 17.0537 21.8555 17.3438 21.6881C17.6338 21.5206 17.9912 21.5206 18.2812 21.6881C18.5713 21.8555 18.75 22.165 18.75 22.5V23.4375C18.75 23.6861 18.6512 23.9247 18.4754 24.1004C18.2997 24.2762 18.0611 24.375 17.8125 24.375Z" fill="white"/>
<path d="M7.21653 30C7.16965 30 7.12257 29.9964 7.0759 29.9895C6.29789 29.8715 2.33065 29.1165 0.673584 25.8216C0.1996 24.873 -0.0307735 23.8213 0.00329795 22.7613V15.3513C0.00329795 15.1521 0.0669142 14.9579 0.184728 14.7972C0.302334 14.6365 0.468282 14.5174 0.658289 14.4574L6.93418 12.4733C7.11792 12.4158 7.31504 12.4158 7.49899 12.4733L13.7749 14.4574H13.7751C13.9651 14.5174 14.131 14.6365 14.2489 14.7972C14.3667 14.9579 14.4301 15.1521 14.4301 15.3513V22.7844C14.4615 23.8364 14.2313 24.8797 13.76 25.8206C12.1025 29.1165 8.13501 29.8707 7.35716 29.9885L7.35695 29.9887C7.3107 29.9956 7.26382 29.9994 7.21674 29.9996L7.21653 30ZM1.87824 16.0382V22.785C1.84999 23.5444 2.01175 24.2988 2.3493 24.98C3.51887 27.3059 6.46782 27.977 7.21674 28.1124C7.96567 27.9771 10.9144 27.3061 12.0846 24.9796L12.0844 24.9794C12.4192 24.3062 12.581 23.5602 12.5555 22.8087L12.555 16.0388L7.21676 14.3513L1.87824 16.0382Z" fill="white"/>
<path d="M6.83226 23.4916C6.58345 23.4921 6.34489 23.3931 6.16932 23.2169L4.23341 21.2814C4.00259 21.0435 3.91449 20.7013 4.00196 20.3813C4.08943 20.0616 4.3393 19.8117 4.65907 19.7242C4.97883 19.6368 5.32116 19.7249 5.55912 19.9557L6.8323 21.2284L9.821 18.2402L9.82079 18.2399C9.99573 18.0598 10.2355 17.9572 10.4867 17.9553C10.7378 17.9535 10.9791 18.0522 11.1568 18.2299C11.3344 18.4074 11.4332 18.6488 11.4313 18.9C11.4294 19.1509 11.3269 19.3909 11.1467 19.5657L7.49506 23.2167V23.2169C7.31949 23.3931 7.08093 23.4918 6.83233 23.4916L6.83226 23.4916Z" fill="white"/>
<path d="M17.8137 28.125C15.8531 28.1235 13.9215 27.6535 12.1791 26.7539C11.9504 26.6357 11.7802 26.4287 11.7085 26.1813C11.6365 25.934 11.6693 25.668 11.7991 25.4456C11.9288 25.2231 12.1441 25.0637 12.3946 25.0044C12.6453 24.9452 12.9092 24.9913 13.125 25.1321C14.9836 26.0797 17.0859 26.4413 19.1544 26.1692C21.223 25.8973 23.1603 25.0046 24.7114 23.609C26.262 22.2135 27.3531 20.3805 27.8407 18.3519C28.3283 16.3235 28.1894 14.1949 27.4423 12.2469C26.6952 10.2991 25.375 8.62351 23.6561 7.44119C21.9372 6.25908 19.9002 5.62581 17.8141 5.62501C15.472 5.63589 13.2028 6.43924 11.3759 7.90431C9.54862 9.36939 8.27126 11.4099 7.75167 13.6938C7.67926 14.0209 7.43778 14.2843 7.11846 14.3852C6.79891 14.486 6.44989 14.4086 6.20292 14.1824C5.95578 13.9562 5.84822 13.6153 5.92063 13.2882C6.59027 10.2838 8.37173 7.64395 10.9076 5.89913C13.4434 4.15452 16.5454 3.43377 19.591 3.88227C22.6365 4.33077 25.3992 5.91482 27.3246 8.31654C29.2499 10.7183 30.1948 13.7594 29.9699 16.8296C29.7449 19.8995 28.3665 22.7701 26.1119 24.8658C23.857 26.9612 20.8928 28.1258 17.8147 28.1255L17.8137 28.125Z" fill="white"/>
<path d="M17.8146 24.375C16.0691 24.3811 14.3661 23.8377 12.9471 22.8215C12.7406 22.6783 12.6002 22.4586 12.5571 22.211C12.5142 21.9635 12.5724 21.7092 12.7186 21.5047C12.8649 21.3005 13.0869 21.1636 13.3351 21.1245C13.5831 21.0854 13.8367 21.1475 14.0385 21.2969C15.1398 22.0844 16.4609 22.5052 17.8146 22.5C19.4764 22.4994 21.076 21.8684 22.2906 20.7347C23.5053 19.6007 24.2447 18.0482 24.3593 16.3906C24.474 14.7328 23.9554 13.0932 22.9085 11.8029C21.8616 10.5123 20.3641 9.66712 18.7184 9.43778C17.0725 9.20843 15.4009 9.61189 14.0411 10.567C12.6811 11.5218 11.7343 12.9572 11.3912 14.5829C11.3412 14.8274 11.196 15.0419 10.9876 15.1787C10.7791 15.3158 10.5247 15.3639 10.2805 15.3128C10.0365 15.2618 9.8226 15.1153 9.68679 14.9063C9.55077 14.6972 9.50369 14.4425 9.556 14.1985C9.99608 12.1074 11.2134 10.261 12.9618 9.03241C14.7104 7.80359 16.8599 7.284 18.9762 7.57865C21.0929 7.87308 23.019 8.95977 24.3655 10.619C25.7121 12.2785 26.379 14.387 26.2317 16.5189C26.0842 18.6508 25.1333 20.6474 23.5709 22.1058C22.0088 23.564 19.9513 24.3751 17.8141 24.3753L17.8146 24.375Z" fill="white"/>
<path d="M19.6875 1.875H15.9375C15.6025 1.875 15.293 1.69629 15.1256 1.40625C14.9581 1.11621 14.9581 0.758786 15.1256 0.46875C15.293 0.178714 15.6025 0 15.9375 0H19.6875C20.0225 0 20.332 0.178709 20.4994 0.46875C20.6668 0.758791 20.6668 1.11621 20.4994 1.40625C20.332 1.69629 20.0225 1.875 19.6875 1.875Z" fill="white"/>
<path d="M17.8125 5.62499C17.5639 5.62499 17.3253 5.52621 17.1496 5.35043C16.9738 5.17465 16.875 4.93609 16.875 4.68749V0.937487C16.875 0.602456 17.0537 0.292969 17.3438 0.125558C17.6338 -0.0418527 17.9912 -0.0418527 18.2812 0.125558C18.5713 0.292969 18.75 0.602467 18.75 0.937487V4.68749C18.75 4.93609 18.6512 5.17465 18.4754 5.35043C18.2997 5.52621 18.0611 5.62499 17.8125 5.62499Z" fill="white"/>
<path d="M9.86092 8.91975C9.61232 8.92017 9.37375 8.8214 9.19819 8.6452L7.87251 7.31952C7.64253 7.08138 7.55526 6.73966 7.64274 6.42032C7.73021 6.10099 7.97965 5.85156 8.29899 5.76407C8.61832 5.6766 8.96006 5.76386 9.19818 5.99385L10.5239 7.31953C10.6996 7.4953 10.7984 7.73387 10.7984 7.98247C10.7984 8.23108 10.6996 8.46943 10.5239 8.6452C10.3481 8.82098 10.1095 8.91976 9.86091 8.91976L9.86092 8.91975Z" fill="white"/>
<path d="M25.7694 8.91953C25.5208 8.91953 25.2822 8.82076 25.1064 8.64498C24.9307 8.4692 24.8319 8.23084 24.8319 7.98224C24.8319 7.73364 24.9307 7.49508 25.1064 7.3193L26.4321 5.99362C26.6069 5.81282 26.8469 5.70965 27.0982 5.70756C27.3498 5.70526 27.5915 5.80424 27.7693 5.98211C27.9472 6.15999 28.0462 6.40168 28.0439 6.6532C28.0418 6.90453 27.9386 7.14455 27.7578 7.31931L26.4321 8.64499C26.2566 8.82119 26.018 8.91996 25.7694 8.91954L25.7694 8.91953Z" fill="white"/>
<path d="M19.7965 16.8751H17.8125C17.5639 16.8751 17.3253 16.7763 17.1496 16.6005C16.9738 16.4248 16.875 16.1862 16.875 15.9376V13.1332C16.875 12.7984 17.0537 12.4889 17.3438 12.3215C17.6338 12.1539 17.9912 12.1539 18.2812 12.3215C18.5713 12.4889 18.75 12.7984 18.75 13.1332V15.0001H19.7965C20.1313 15.0001 20.4408 15.1788 20.6082 15.4688C20.7759 15.7589 20.7759 16.1163 20.6082 16.4063C20.4408 16.6964 20.1313 16.8751 19.7965 16.8751Z" fill="white"/>
</svg>
