<svg width="160" height="89" viewBox="0 0 160 89" fill="none" xmlns="http://www.w3.org/2000/svg">
<path d="M3.4243 46.5493C3.35327 46.185 3.43537 45.8407 3.67058 45.5162C3.92123 45.1689 4.11389 44.9323 4.24856 44.8065C4.39867 44.6579 4.49687 44.5492 4.54316 44.4805C4.97919 46.2063 6.32824 46.8486 8.59032 46.4075C10.3731 46.0598 12.3447 45.0983 14.505 43.5229C16.0424 42.4271 17.0202 41.4206 17.4383 40.5033C17.5814 40.2167 17.638 39.9967 17.6081 39.8434C17.5745 39.6708 17.5195 39.5423 17.4433 39.4576L4.98844 39.1104C4.62842 39.101 4.26117 39.0035 3.88668 38.8178C3.21016 38.512 2.83826 38.1865 2.77097 37.8414C2.51304 36.5187 3.21874 35.1374 4.88808 33.6975C6.73043 32.1244 9.32856 30.7024 12.6825 29.4315C13.4423 29.1441 14.012 28.9534 14.3917 28.8594C14.5142 28.8754 14.6942 28.8801 14.9317 28.8735C15.1847 28.8441 15.4414 28.8338 15.7018 28.8428C16.3222 28.8611 16.62 29.0617 16.5952 29.4446C16.7223 30.0964 15.5772 30.857 13.1598 31.7263C10.0327 32.8336 8.09832 33.6287 7.35672 34.1116C6.63429 34.5908 6.1246 35.0384 5.82766 35.4545C5.54988 35.8668 5.44813 36.3145 5.52242 36.7975C5.54111 36.8933 5.78213 36.9558 6.24547 36.9848C6.70881 37.0139 7.26403 37.0548 7.91112 37.1077C8.55447 37.1415 9.39115 37.1972 10.4212 37.275C12.9254 37.4632 16 37.7193 19.645 38.0433C19.9189 38.4277 20.0914 38.802 20.1624 39.1662C20.3606 40.1822 19.9569 41.2758 18.9516 42.4469C17.8153 43.7629 16.1296 45.0169 13.8945 46.2089C12.0359 47.1882 10.5219 47.7919 9.35248 48.0199C8.3748 48.2106 7.41141 48.2194 6.46229 48.0463C5.51317 47.8731 4.78638 47.6666 4.28192 47.4267C3.77746 47.1868 3.49158 46.8943 3.4243 46.5493ZM26.9819 41.6869L26.1422 37.0748C26.0002 36.3464 25.8116 35.7364 25.5765 35.245L21.1194 36.1141L20.675 34.1412L24.9883 33.3001L23.5416 25.8813C23.5655 25.6975 23.6469 25.5025 23.7857 25.2964C24.0018 24.9757 24.1961 24.7985 24.3686 24.7648C24.5603 24.7275 24.727 24.7148 24.8687 24.727C25.0103 24.7392 25.1803 24.8453 25.3785 25.0455C25.9319 26.2509 26.4573 28.1284 26.9544 30.6781C27.0778 31.3107 27.228 31.9281 27.4052 32.5303C28.0037 32.334 28.6096 32.1761 29.2231 32.0564C29.2231 32.0564 29.7215 31.9593 30.7184 31.7649C31.0826 31.6938 31.4143 31.6093 31.7136 31.5111L32.031 33.5983L27.8103 34.3019L29.8886 44.1945C29.5735 44.4151 29.2913 44.5497 29.0421 44.5983C28.0836 44.7853 27.3968 43.8148 26.9819 41.6869ZM45.4528 35.9956C44.4562 38.5381 42.8121 40.3113 40.5205 41.3154C39.987 41.5388 39.4902 41.6954 39.0301 41.7851C38.5892 41.871 38.2153 41.9439 37.9086 42.0038C37.6173 42.0407 37.2821 42.0563 36.9029 42.0506C36.5237 42.045 36.1639 41.9858 35.8236 41.8731C35.0358 41.6088 34.5708 41.1124 34.4288 40.384C34.2848 40.0539 34.1717 39.6779 34.0895 39.2562C34.0035 38.8153 33.9872 38.2215 34.0406 37.4748C34.094 36.7281 34.2895 35.894 34.6272 34.9725C34.9841 34.0473 35.4594 33.1686 36.0533 32.3364C37.2837 30.5841 38.7395 29.3252 40.421 28.5595C40.9161 28.3436 41.3746 28.1945 41.7963 28.1122C42.2372 28.0262 42.6358 27.9784 42.9921 27.9686C44.104 27.7518 44.9993 28.3632 45.678 29.8029C46.1141 30.7128 46.5196 32.0267 46.8943 33.7445C47.2846 35.4394 47.5904 36.7528 47.8119 37.6847C48.0489 38.5937 48.338 39.4129 48.6792 40.1423L46.9826 40.4731C46.805 39.9705 46.6578 39.5216 46.5409 39.1265C46.4241 38.7314 46.3129 38.3651 46.2072 38.0275C45.9544 37.241 45.7029 36.5637 45.4528 35.9956ZM44.4687 31.561C44.2519 30.4491 43.5971 29.9997 42.5044 30.2128C42.3665 30.2198 42.2304 30.2364 42.0962 30.2625C40.6968 30.5354 39.3516 31.4942 38.0604 33.1389C37.4516 33.8944 36.9631 34.7061 36.5951 35.5738C36.0413 36.816 35.8486 37.8685 36.0168 38.7311C36.2374 39.8622 37.02 40.406 38.3647 40.3627C40.0825 39.9879 41.5779 38.8805 42.8508 37.0403C43.3909 36.2385 43.8048 35.4016 44.0924 34.5297C44.5003 33.3557 44.6257 32.3661 44.4687 31.561ZM62.1365 26.8024C61.2192 26.3843 60.1279 26.2986 58.8627 26.5453C57.6742 26.7771 56.6149 27.2125 55.6848 27.8516C53.9248 29.0305 52.8135 30.3218 52.3509 31.7253C52.1564 32.3602 52.1226 33.0036 52.2497 33.6554C52.2722 33.7704 52.3357 34.0963 52.4404 34.6331C52.5413 35.1506 52.7755 35.8413 53.1429 36.7049C53.5065 37.5493 53.7781 38.4316 53.9575 39.3518C53.5587 39.4495 53.2421 39.5609 53.0079 39.6862C52.7736 39.8115 52.5702 39.891 52.3977 39.9246C52.2251 39.9582 52.0568 39.9115 51.8927 39.7843C51.7478 39.6533 51.5557 39.3824 51.3163 38.9714C51.2747 38.8601 51.1728 38.5417 51.0107 38.0161C50.8485 37.4906 50.6447 36.8537 50.3993 36.1056C50.1731 35.3538 49.9147 34.5385 49.6239 33.66C49.3487 32.7585 49.0771 31.8762 48.8093 31.0131C48.2246 29.1372 47.7869 27.7599 47.4962 26.8814C47.4065 26.4213 47.6971 26.1258 48.3681 25.995C48.7706 25.9165 49.1206 26.0273 49.4179 26.3275C49.7115 26.6086 49.9684 26.9565 50.1885 27.3712C50.405 27.7668 50.5735 28.1717 50.6941 28.586C50.8338 28.9965 50.9397 29.2843 51.0117 29.4493C53.101 26.6938 56.0244 24.9497 59.7817 24.217C60.2035 24.1348 60.6463 24.0584 61.1101 23.9879C61.2214 23.9463 61.3633 23.9086 61.5358 23.875C61.7083 23.8413 61.9033 23.9227 62.1207 24.1191C62.3839 24.3464 62.5529 24.6517 62.6276 25.0351C62.8146 25.9936 62.6508 26.5827 62.1365 26.8024ZM70.1148 33.2759L69.2751 28.6639C69.1331 27.9354 68.9445 27.3255 68.7094 26.834L64.2523 27.7032L63.8079 25.7303L68.1212 24.8892L66.6745 17.4703C66.6984 17.2866 66.7798 17.0916 66.9186 16.8854C67.1347 16.5647 67.329 16.3875 67.5015 16.3539C67.6932 16.3165 67.8599 16.3039 68.0016 16.3161C68.1432 16.3283 68.3132 16.4344 68.5114 16.6346C69.0648 17.84 69.5902 19.7175 70.0873 22.2671C70.2107 22.8997 70.3609 23.5172 70.5381 24.1194C71.1366 23.9231 71.7425 23.7651 72.356 23.6455C72.356 23.6455 72.8544 23.5483 73.8513 23.3539C74.2155 23.2829 74.5472 23.1983 74.8465 23.1002L75.1639 25.1874L70.9432 25.891L73.0215 35.7835C72.7064 36.0042 72.4242 36.1388 72.175 36.1874C71.2165 36.3743 70.5297 35.4038 70.1148 33.2759ZM97.3239 31.3729C97.0172 31.4327 96.6726 31.4004 96.2901 31.276C95.5407 31.0043 95.2031 30.702 95.2775 30.3691C95.4291 29.9216 95.5692 29.0585 95.6979 27.7798L95.9697 25.0404C96.0773 24.1638 96.1681 23.2009 96.2421 22.1517L87.0393 15.8274C86.8714 15.681 86.7744 15.5407 86.7483 15.4066C86.7221 15.2724 86.7782 15.152 86.9166 15.0454C87.1434 14.8818 87.4293 14.7663 87.7744 14.699C88.1386 14.628 88.5141 14.6145 88.9008 14.6585C89.3066 14.6987 89.8323 14.8947 90.478 15.2464C91.7501 15.9535 93.9219 17.5497 96.9935 20.0351C97.4816 16.5173 97.8832 14.2401 98.1985 13.2036C98.51 12.1479 98.7834 11.4578 99.0186 11.1334C99.2692 10.786 99.5077 10.5803 99.734 10.5163C99.9795 10.4485 100.192 10.417 100.372 10.4217C100.552 10.4264 100.703 10.5363 100.825 10.7514C100.477 12.1325 100.182 13.6824 99.9403 15.4011C99.7138 17.0969 99.4794 18.8539 99.237 20.6722C98.6047 25.4917 97.9671 29.0586 97.3239 31.3729ZM105.388 23.5919C104.947 21.3298 105.569 19.318 107.256 17.5564C108.595 16.1609 110.336 15.1351 112.476 14.4789C112.591 14.4565 112.859 14.4041 113.281 14.3219C113.703 14.2397 114.293 14.254 115.051 14.3649C116.727 14.5951 117.986 15.3347 118.826 16.5836C119.161 17.0755 119.366 17.5132 119.441 17.8966C119.512 18.2608 119.552 18.5215 119.563 18.6786C120.03 21.0749 119.488 23.1407 117.936 24.8761C116.496 26.4703 114.51 27.5141 111.98 28.0075C110.159 28.3627 108.696 28.2101 107.593 27.5497C106.508 26.8857 105.773 25.5664 105.388 23.5919ZM107.507 23.8951C107.738 25.0836 108.212 25.8271 108.927 26.1255C109.466 26.3388 110.301 26.3351 111.432 26.1146C112.563 25.894 113.543 25.6134 114.372 25.2726C115.201 24.9319 115.91 24.4852 116.498 23.9326C117.757 22.7321 118.197 21.1637 117.82 19.2275C117.595 18.0773 117.105 17.1978 116.35 16.589C115.526 15.9338 114.567 15.7128 113.475 15.9259C112.753 16.2058 112.024 16.4973 111.287 16.8002C110.569 17.0993 109.918 17.5348 109.333 18.1065C108.059 19.33 107.45 21.2595 107.507 23.8951ZM121.408 22.1693C121.348 21.8626 121.237 21.4465 121.075 20.9209C120.928 20.3725 120.772 19.7761 120.607 19.1318C120.441 18.4875 120.293 17.8298 120.162 17.1589C120.031 16.4879 119.969 15.8633 119.976 15.2849C119.982 13.9902 120.378 13.2663 121.164 13.113C121.731 13.1617 122.123 13.2843 122.34 13.4807C122.577 13.6733 122.729 13.9422 122.796 14.2872C122.86 14.6131 122.854 15.0421 122.778 15.5742C122.471 17.3653 122.448 18.9319 122.71 20.2738C122.796 20.7147 122.916 21.1788 123.071 21.666C123.628 22.8906 124.808 23.3272 126.61 22.9758C127.549 22.7926 128.409 22.4558 129.189 21.9655C130.683 21.0572 131.639 20.1444 132.057 19.2271C132.058 18.3116 131.995 17.528 131.868 16.8762C131.737 16.2053 131.592 15.6166 131.434 15.1102C131.294 14.6001 131.127 14.0458 130.93 13.4473C130.749 12.8259 130.577 12.1432 130.412 11.3993C130.638 11.2357 130.867 11.1315 131.097 11.0866C131.346 11.038 131.62 11.114 131.917 11.3147C132.234 11.5115 132.546 11.9382 132.853 12.5947C133.18 13.2474 133.463 14.0379 133.704 14.966C133.941 15.875 134.157 16.8279 134.351 17.8247C134.564 18.8178 134.763 19.784 134.946 20.7234C135.125 21.6436 135.319 22.4316 135.526 23.0876C135.337 23.3434 135.138 23.4918 134.927 23.5329C134.16 23.6824 133.445 23.0259 132.782 21.5633C132.573 21.8228 132.202 22.1638 131.668 22.5864C130.537 23.5233 129.132 24.2749 127.451 24.8414C127.133 24.9433 126.772 25.0335 126.37 25.112C125.967 25.1905 125.444 25.2129 124.801 25.1792C124.177 25.1417 123.542 24.8973 122.897 24.446C122.251 23.9948 121.755 23.2359 121.408 22.1693ZM149.322 9.80112C148.405 9.38302 147.314 9.29733 146.049 9.54405C144.86 9.77582 143.801 10.2112 142.871 10.8503C141.111 12.0292 139.999 13.3205 139.537 14.724C139.342 15.3589 139.309 16.0023 139.436 16.6541C139.458 16.7691 139.522 17.095 139.626 17.6318C139.727 18.1494 139.961 18.84 140.329 19.7036C140.692 20.548 140.964 21.4303 141.143 22.3505C140.745 22.4482 140.428 22.5596 140.194 22.6849C139.96 22.8102 139.756 22.8897 139.584 22.9233C139.411 22.9569 139.243 22.9102 139.079 22.783C138.934 22.652 138.742 22.3811 138.502 21.9701C138.461 21.8588 138.359 21.5404 138.197 21.0148C138.034 20.4893 137.831 19.8524 137.585 19.1043C137.359 18.3525 137.101 17.5372 136.81 16.6587C136.535 15.7572 136.263 14.8749 135.995 14.0118C135.411 12.1359 134.973 10.7586 134.682 9.88006C134.592 9.41997 134.883 9.12451 135.554 8.99368C135.957 8.91518 136.307 9.02603 136.604 9.32623C136.897 9.60727 137.154 9.95516 137.375 10.3699C137.591 10.7655 137.759 11.1704 137.88 11.5847C138.02 11.9952 138.126 12.283 138.198 12.448C140.287 9.69252 143.21 7.94842 146.968 7.21573C147.389 7.13349 147.832 7.0571 148.296 6.98655C148.407 6.94496 148.549 6.90733 148.722 6.87369C148.894 6.84005 149.089 6.92142 149.307 7.11782C149.57 7.34508 149.739 7.65042 149.814 8.03382C150.001 8.99233 149.837 9.58143 149.322 9.80112ZM20.7952 86.5719L19.49 86.7667L18.1835 80.0667C17.999 78.6102 17.8271 77.3205 17.6678 76.1974C17.5085 75.0743 17.427 74.0952 17.4234 73.2602C17.4197 72.4251 17.5381 71.7056 17.7785 71.1015C18.0152 70.4783 18.4468 69.9365 19.0734 69.476C20.1998 68.6196 22.4308 67.8661 25.7664 67.2157C27.2042 66.9353 28.4495 66.8417 29.5025 66.9349C30.5516 67.0089 31.3402 67.1238 31.868 67.2795C33.0654 67.6032 33.7575 68.2443 33.9444 69.2028C34.1313 70.1613 34.0235 71.0878 33.6208 71.9822C33.2335 72.8536 32.6551 73.6629 31.8854 74.41C31.1312 75.1341 30.2432 75.7848 29.2215 76.3622C28.1998 76.9395 27.1651 77.4497 26.1172 77.8928C24.2367 78.6575 22.3954 79.2155 20.5934 79.5669L21.7344 86.0305C21.7792 86.2606 21.4662 86.441 20.7952 86.5719ZM19.931 76.3232C20.1179 77.2817 20.6235 77.6806 21.4478 77.5198C21.5628 77.4974 21.7641 77.4582 22.0517 77.4021C22.3355 77.3268 22.8283 77.2009 23.5301 77.0242C24.2474 76.8247 24.9955 76.5793 25.7745 76.2881C26.5497 75.9777 27.3175 75.629 28.0778 75.242C28.8572 74.8512 29.5392 74.4197 30.1237 73.9476C31.4428 72.8546 31.9809 71.6851 31.7379 70.439C31.2074 69.249 29.9116 68.6759 27.8506 68.7196C27.2339 68.7204 26.6859 68.7676 26.2067 68.8611C25.7466 68.9508 25.1963 69.0879 24.5557 69.2725C23.9305 69.4342 23.2205 69.7219 22.4256 70.1356C21.6307 70.5493 20.9869 71.0231 20.494 71.557C20.0011 72.0909 19.7802 72.6414 19.8311 73.2086C19.8567 73.4423 19.8612 73.7201 19.8443 74.0418C19.8049 75.0643 19.8338 75.8248 19.931 76.3232ZM48.3209 76.1898C47.3243 78.7322 45.6801 80.5054 43.3885 81.5095C42.855 81.7329 42.3582 81.8895 41.8981 81.9792C41.4572 82.0652 41.0834 82.1381 40.7767 82.1979C40.4854 82.2348 40.1502 82.2504 39.771 82.2448C39.3918 82.2391 39.032 82.1799 38.6916 82.0672C37.9038 81.8029 37.4389 81.3066 37.2969 80.5781C37.1529 80.248 37.0398 79.8721 36.9575 79.4503C36.8716 79.0094 36.8553 78.4156 36.9087 77.6689C36.9621 76.9223 37.1576 76.0882 37.4953 75.1667C37.8521 74.2414 38.3275 73.3627 38.9214 72.5305C40.1517 70.7783 41.6076 69.5193 43.289 68.7536C43.7842 68.5377 44.2426 68.3886 44.6644 68.3064C45.1053 68.2204 45.5039 68.1725 45.8602 68.1627C46.972 67.9459 47.8673 68.5573 48.5461 69.997C48.9822 70.9069 49.3876 72.2208 49.7624 73.9387C50.1526 75.6336 50.4585 76.947 50.68 77.8788C50.9169 78.7878 51.206 79.607 51.5473 80.3364L49.8507 80.6672C49.6731 80.1646 49.5259 79.7157 49.409 79.3206C49.2922 78.9255 49.1809 78.5592 49.0753 78.2216C48.8225 77.4351 48.571 76.7579 48.3209 76.1898ZM47.3368 71.7551C47.1199 70.6433 46.4652 70.1939 45.3725 70.4069C45.2346 70.4139 45.0985 70.4305 44.9643 70.4567C43.5649 70.7296 42.2196 71.6884 40.9285 73.3331C40.3197 74.0886 39.8312 74.9002 39.4631 75.7679C38.9094 77.0102 38.7167 78.0626 38.8849 78.9253C39.1054 80.0563 39.888 80.6001 41.2327 80.5568C42.9506 80.182 44.4459 79.0746 45.7188 77.2344C46.259 76.4326 46.6729 75.5958 46.9605 74.7238C47.3683 73.5498 47.4938 72.5603 47.3368 71.7551ZM56.7361 76.6382L55.8965 72.0261C55.7544 71.2977 55.5658 70.6877 55.3307 70.1963L50.8737 71.0654L50.4292 69.0925L54.7425 68.2514L53.2959 60.8326C53.3197 60.6488 53.4011 60.4539 53.54 60.2477C53.756 59.927 53.9503 59.7498 54.1229 59.7162C54.3146 59.6788 54.4812 59.6662 54.6229 59.6783C54.7646 59.6905 54.9345 59.7967 55.1327 59.9968C55.6862 61.2022 56.2115 63.0798 56.7087 65.6294C56.832 66.262 56.9823 66.8794 57.1594 67.4817C57.7579 67.2854 58.3639 67.1274 58.9773 67.0078C58.9773 67.0078 59.4757 66.9106 60.4726 66.7162C60.8368 66.6452 61.1686 66.5606 61.4678 66.4624L61.7853 68.5496L57.5646 69.2533L59.6429 79.1458C59.3277 79.3664 59.0455 79.5011 58.7963 79.5497C57.8378 79.7366 57.1511 78.7661 56.7361 76.6382ZM78.2735 74.886C78.1646 75.2455 77.7458 75.4963 77.0174 75.6384C76.3081 75.7767 75.903 75.587 75.802 75.0694C75.3609 72.8074 75.0102 71.2639 74.7499 70.4391C74.2147 68.6133 73.6561 67.6874 73.074 67.6617C71.6414 67.6624 70.4842 67.7488 69.6024 67.9207C68.7397 68.089 68.0732 68.4975 67.6028 69.1464C67.1477 69.7724 66.8865 70.7288 66.819 72.0155C66.767 73.2793 66.8888 75.0266 67.1845 77.2573L64.9704 77.6891C64.7956 76.5889 64.6167 75.5691 64.4335 74.6298C64.2503 73.6904 64.0143 72.5823 63.7255 71.3054C63.433 70.0093 63.1084 68.6 62.7519 67.0776C62.3121 65.3327 61.9745 63.8563 61.739 62.6486C61.4997 61.4217 61.3577 60.2853 61.313 59.2394C61.4336 58.8378 61.6761 58.6015 62.0403 58.5304C62.4812 58.4444 62.8581 58.5401 63.1708 58.8174C63.4799 59.0755 63.6683 59.3273 63.736 59.5728L64.5175 64.3455C64.8651 66.1283 65.2112 67.4438 65.5557 68.292C67.0567 66.8053 68.7274 65.8826 70.5677 65.5237C71.162 65.4078 71.8039 65.3324 72.4936 65.2974C74.0771 65.7647 75.1716 66.3771 75.777 67.1346C76.0739 67.5344 76.2996 67.9779 76.4543 68.4651C76.609 68.9523 76.7577 69.5103 76.9002 70.1392C77.4414 72.3022 77.8992 73.8844 78.2735 74.886ZM104.642 69.7441C104.533 70.1036 104.114 70.3544 103.386 70.4965C102.677 70.6348 102.272 70.4452 102.171 69.9276C101.73 67.6655 101.379 66.122 101.118 65.2972C100.583 63.4714 100.025 62.5456 99.4426 62.5198C98.01 62.5205 96.8528 62.6069 95.971 62.7789C95.1083 62.9471 94.4418 63.3556 93.9713 64.0046C93.5163 64.6306 93.2551 65.5869 93.1876 66.8736C93.1356 68.1374 93.2574 69.8847 93.5531 72.1154L91.3389 72.5472C91.1642 71.447 90.9852 70.4272 90.8021 69.4879C90.6189 68.5486 90.3829 67.4404 90.0941 66.1635C89.8016 64.8674 89.477 63.4582 89.1205 61.9358C88.6807 60.1908 88.3431 58.7144 88.1076 57.5067C87.8683 56.2798 87.7263 55.1434 87.6815 54.0975C87.8022 53.6959 88.0447 53.4596 88.4089 53.3885C88.8498 53.3026 89.2267 53.3982 89.5394 53.6755C89.8484 53.9336 90.0368 54.1854 90.1046 54.4309L90.886 59.2036C91.2337 60.9864 91.5798 62.3019 91.9242 63.1501C93.4253 61.6634 95.0959 60.7407 96.9363 60.3818C97.5306 60.2659 98.1725 60.1905 98.8622 60.1555C100.446 60.6228 101.54 61.2352 102.146 61.9927C102.442 62.3925 102.668 62.836 102.823 63.3232C102.978 63.8104 103.126 64.3684 103.269 64.9973C103.81 67.1603 104.268 68.7426 104.642 69.7441ZM111.258 66.7824C112.945 66.4535 115.336 65.1914 118.43 62.9961C118.641 62.955 118.828 62.998 118.992 63.1252C119.153 63.2332 119.251 63.3831 119.289 63.5748C118.776 65.0279 117.508 66.3299 115.484 67.4808C113.459 68.6317 111.461 69.1506 109.489 69.0377C107.253 68.8967 105.725 67.9509 104.906 66.2003C104.797 65.8435 104.682 65.3584 104.563 64.745C104.443 64.1316 104.439 63.2965 104.552 62.2398C104.68 61.1603 105.039 60.0952 105.63 59.0447C106.221 57.9942 106.984 57.1092 107.918 56.3897C108.852 55.6703 109.904 55.1965 111.074 54.9685C112.186 54.7517 113.506 54.8921 115.036 55.3898C115.759 55.6269 116.357 55.9381 116.83 56.3234C117.303 56.7088 117.586 57.141 117.68 57.6203C117.706 57.7545 117.723 57.8906 117.73 58.0285C117.919 59.2053 117.498 60.0537 116.465 60.5735C116.012 60.8011 115.469 60.9766 114.836 61.1L110.662 61.7349C109.282 62.004 108.285 62.5068 107.673 63.2431C107.314 63.6512 107.113 64.198 107.067 64.8835C107.887 66.5345 109.284 67.1675 111.258 66.7824ZM114.644 56.899C114.162 56.6745 113.678 56.54 113.192 56.4955C112.706 56.4511 112.309 56.4587 112.003 56.5185C111.696 56.5784 111.218 56.781 110.569 57.1264C109.916 57.4527 109.346 57.7928 108.858 58.1467C107.655 59.018 107.119 59.7892 107.249 60.4602C108.809 60.2953 109.972 60.1381 110.739 59.9886C112.867 59.5736 114.269 59.1112 114.946 58.6011C115.369 58.3197 115.552 58.0352 115.496 57.7477C115.429 57.4026 115.145 57.1197 114.644 56.899ZM133.787 53.5839C132.87 53.1658 131.779 53.0801 130.513 53.3268C129.325 53.5586 128.266 53.994 127.335 54.6331C125.575 55.812 124.464 57.1033 124.002 58.5068C123.807 59.1417 123.773 59.7851 123.9 60.4369C123.923 60.5519 123.986 60.8778 124.091 61.4146C124.192 61.9322 124.426 62.6228 124.794 63.4864C125.157 64.3308 125.429 65.2131 125.608 66.1333C125.209 66.231 124.893 66.3424 124.659 66.4677C124.424 66.593 124.221 66.6725 124.048 66.7061C123.876 66.7397 123.707 66.693 123.543 66.5658C123.398 66.4348 123.206 66.1639 122.967 65.7529C122.925 65.6416 122.823 65.3232 122.661 64.7976C122.499 64.2721 122.295 63.6352 122.05 62.8871C121.824 62.1353 121.565 61.32 121.275 60.4415C120.999 59.54 120.728 58.6577 120.46 57.7946C119.875 55.9187 119.438 54.5414 119.147 53.6629C119.057 53.2028 119.348 52.9073 120.019 52.7765C120.421 52.698 120.771 52.8088 121.069 53.109C121.362 53.3901 121.619 53.738 121.839 54.1527C122.056 54.5483 122.224 54.9532 122.345 55.3675C122.484 55.778 122.59 56.0658 122.662 56.2308C124.752 53.4753 127.675 51.7312 131.432 50.9985C131.854 50.9163 132.297 50.8399 132.761 50.7694C132.872 50.7278 133.014 50.6901 133.186 50.6565C133.359 50.6228 133.554 50.7042 133.771 50.9006C134.035 51.1279 134.204 51.4332 134.278 51.8166C134.465 52.7751 134.301 53.3642 133.787 53.5839ZM143.435 60.5079C145.122 60.1789 147.513 58.9168 150.607 56.7215C150.818 56.6804 151.005 56.7235 151.169 56.8507C151.33 56.9587 151.429 57.1085 151.466 57.3002C150.953 58.7533 149.685 60.0553 147.661 61.2062C145.637 62.3571 143.638 62.8761 141.666 62.7632C139.43 62.6222 137.902 61.6764 137.083 59.9257C136.974 59.569 136.86 59.0839 136.74 58.4704C136.62 57.857 136.617 57.0219 136.729 55.9653C136.857 54.8857 137.216 53.8207 137.807 52.7701C138.398 51.7196 139.161 50.8346 140.095 50.1152C141.03 49.3957 142.081 48.922 143.251 48.6939C144.363 48.4771 145.683 48.6175 147.213 49.1152C147.936 49.3523 148.534 49.6636 149.007 50.0489C149.48 50.4342 149.764 50.8665 149.857 51.3457C149.883 51.4799 149.9 51.616 149.907 51.7539C150.096 52.9308 149.675 53.7791 148.642 54.2989C148.189 54.5266 147.646 54.7021 147.013 54.8254L142.839 55.4603C141.459 55.7295 140.462 56.2322 139.85 56.9686C139.492 57.3767 139.29 57.9235 139.244 58.6089C140.064 60.2599 141.461 60.8929 143.435 60.5079ZM146.821 50.6244C146.339 50.3999 145.856 50.2655 145.369 50.221C144.883 50.1765 144.487 50.1842 144.18 50.244C143.873 50.3038 143.395 50.5064 142.746 50.8519C142.094 51.1782 141.523 51.5182 141.035 51.8721C139.832 52.7435 139.296 53.5147 139.426 54.1856C140.986 54.0208 142.15 53.8636 142.916 53.714C145.044 53.2991 146.447 52.8366 147.123 52.3266C147.546 52.0452 147.729 51.7607 147.673 51.4731C147.606 51.1281 147.322 50.8452 146.821 50.6244Z" fill="#64FFDA"/>
</svg>
