<svg width="144" height="53" viewBox="0 0 144 53" fill="none" xmlns="http://www.w3.org/2000/svg">
<path d="M68.2163 22.1225C67.0176 22.1225 66.0302 21.8542 65.2539 21.3177C64.4891 20.7697 64.1066 20.0049 64.1066 19.0232C64.1066 18.9204 64.1181 18.7663 64.1409 18.5608H66.5895C66.5439 19.0403 66.6694 19.4341 66.9663 19.7423C67.2745 20.0506 67.7197 20.2047 68.3019 20.2047C68.8841 20.2047 69.3407 20.0848 69.6718 19.8451C70.0142 19.5939 70.1855 19.24 70.1855 18.7834C70.1855 18.361 70.0085 18.0243 69.6546 17.7731C69.3122 17.522 68.7699 17.2423 68.0279 16.9341C67.343 16.6487 66.7836 16.3861 66.3498 16.1464C65.9274 15.9067 65.5621 15.5756 65.2539 15.1533C64.9571 14.7195 64.8087 14.1772 64.8087 13.5265C64.8087 12.7845 64.9971 12.1395 65.3738 11.5916C65.7619 11.0436 66.287 10.6213 66.9491 10.3245C67.6226 10.0277 68.3875 9.87925 69.2437 9.87925C70.0884 9.87925 70.819 10.0219 71.4355 10.3073C72.0633 10.5813 72.5314 10.9751 72.8396 11.4888C73.1592 12.0026 73.2962 12.6019 73.2505 13.2868H70.6992L70.7163 13.0985C70.7163 12.7217 70.5736 12.4135 70.2882 12.1738C70.0142 11.9341 69.6261 11.8142 69.1238 11.8142C68.5873 11.8142 68.1535 11.9398 67.8224 12.1909C67.4914 12.4421 67.3258 12.7845 67.3258 13.2183C67.3258 13.5037 67.4172 13.7548 67.5998 13.9717C67.7939 14.1772 68.0279 14.3599 68.3019 14.5197C68.5759 14.6681 68.9697 14.8622 69.4834 15.1019C70.1569 15.3987 70.7106 15.6784 71.1444 15.9409C71.5782 16.2035 71.9492 16.5517 72.2574 16.9855C72.5656 17.4193 72.7197 17.9501 72.7197 18.5779C72.7197 19.2629 72.5314 19.8736 72.1546 20.4101C71.7893 20.9467 71.2642 21.3691 70.5793 21.6773C69.9058 21.9741 69.1181 22.1225 68.2163 22.1225ZM87.6231 12.3793C88.6277 12.3793 89.4211 12.6475 90.0033 13.1841C90.5855 13.7206 90.8766 14.4797 90.8766 15.4615C90.8766 15.8268 90.848 16.1521 90.7909 16.4375L89.7978 22.0026H87.4176L88.3423 16.7629C88.3765 16.5574 88.3937 16.3576 88.3937 16.1635C88.3937 15.6156 88.2395 15.1989 87.9313 14.9135C87.6345 14.6167 87.2064 14.4683 86.6471 14.4683C85.985 14.4683 85.4256 14.6681 84.969 15.0676C84.5124 15.4558 84.227 16.0208 84.1128 16.7629V16.7457L83.171 22.0026H80.7909L81.7155 16.7629C81.7498 16.5574 81.7669 16.3633 81.7669 16.1807C81.7669 15.6213 81.6128 15.1989 81.3046 14.9135C80.9963 14.6167 80.5626 14.4683 80.0032 14.4683C79.3753 14.4683 78.8331 14.6567 78.3765 15.0334C77.9313 15.3987 77.6402 15.9238 77.5032 16.6087L76.5443 22.0026H74.1299L75.808 12.5163H78.2224L78.0169 13.6464C78.3936 13.2583 78.8445 12.95 79.3696 12.7217C79.8947 12.4934 80.4484 12.3793 81.0306 12.3793C81.7726 12.3793 82.4062 12.5391 82.9313 12.8587C83.4564 13.1669 83.8274 13.6122 84.0443 14.1943C84.4439 13.6464 84.9633 13.2069 85.6025 12.8758C86.2532 12.5448 86.9268 12.3793 87.6231 12.3793ZM92.3124 17.2252C92.4836 16.2663 92.8204 15.4158 93.3227 14.6738C93.8364 13.9318 94.4585 13.361 95.1891 12.9615C95.9197 12.5619 96.6903 12.3621 97.5008 12.3621C98.2085 12.3621 98.8022 12.5048 99.2816 12.7902C99.7725 13.0756 100.132 13.4352 100.36 13.869L100.6 12.5163H103.015L101.336 22.0026H98.922L99.1789 20.6156C98.8022 21.0608 98.3113 21.4318 97.7063 21.7286C97.1126 22.014 96.462 22.1567 95.7542 22.1567C95.0578 22.1567 94.4414 22.0026 93.9049 21.6944C93.3683 21.3748 92.9517 20.9296 92.6548 20.3588C92.358 19.7766 92.2096 19.1031 92.2096 18.3382C92.2096 17.9843 92.2439 17.6133 92.3124 17.2252ZM99.7611 17.2594C99.8067 16.9626 99.8296 16.7457 99.8296 16.6087C99.8296 15.9352 99.6298 15.4101 99.2302 15.0334C98.8421 14.6567 98.3512 14.4683 97.7576 14.4683C97.3124 14.4683 96.8786 14.5768 96.4562 14.7937C96.0453 15.0106 95.6857 15.3302 95.3775 15.7526C95.0692 16.1635 94.8638 16.6544 94.761 17.2252C94.7268 17.4421 94.7097 17.6476 94.7097 17.8416C94.7097 18.5266 94.9037 19.0688 95.2919 19.4684C95.68 19.8565 96.1709 20.0506 96.7645 20.0506C97.2097 20.0506 97.6435 19.9421 98.0658 19.7252C98.4882 19.4969 98.8478 19.1716 99.1446 18.7492C99.4528 18.3268 99.6583 17.8302 99.7611 17.2594ZM107.479 14.1943C107.89 13.6236 108.37 13.1784 108.918 12.8587C109.465 12.5391 110.059 12.3793 110.698 12.3793L110.253 14.8964H109.62C108.912 14.8964 108.341 15.0505 107.907 15.3587C107.485 15.667 107.177 16.1921 106.983 16.9341L106.092 22.0026H103.678L105.356 12.5163H107.77L107.479 14.1943ZM113.923 19.0745C113.911 19.143 113.906 19.2343 113.906 19.3485C113.906 19.5768 113.968 19.7423 114.094 19.8451C114.231 19.9364 114.453 19.9821 114.762 19.9821H115.892L115.532 22.0026H114.008C112.296 22.0026 111.44 21.2891 111.44 19.8622C111.44 19.5882 111.463 19.32 111.508 19.0574L112.313 14.4854H111.183L111.525 12.5163H112.673L113.084 10.1703H115.498L115.087 12.5163H117.193L116.851 14.4854H114.727L113.923 19.0745Z" fill="white"/>
<path d="M67.8288 42.1199C66.6302 42.1199 65.6427 41.8516 64.8665 41.3151C64.1016 40.7671 63.7192 40.0023 63.7192 39.0205C63.7192 38.9178 63.7306 38.7637 63.7534 38.5582H66.2021C66.1564 39.0376 66.282 39.4315 66.5788 39.7397C66.887 40.0479 67.3322 40.202 67.9144 40.202C68.4966 40.202 68.9532 40.0822 69.2843 39.8425C69.6268 39.5913 69.798 39.2374 69.798 38.7808C69.798 38.3584 69.6211 38.0217 69.2672 37.7705C68.9247 37.5194 68.3825 37.2397 67.6405 36.9315C66.9555 36.6461 66.3962 36.3835 65.9624 36.1438C65.54 35.9041 65.1747 35.573 64.8665 35.1506C64.5697 34.7168 64.4213 34.1746 64.4213 33.5239C64.4213 32.7819 64.6096 32.1369 64.9863 31.589C65.3745 31.041 65.8996 30.6186 66.5617 30.3218C67.2352 30.025 68 29.8766 68.8562 29.8766C69.701 29.8766 70.4316 30.0193 71.048 30.3047C71.6759 30.5787 72.1439 30.9725 72.4521 31.4862C72.7718 31.9999 72.9088 32.5992 72.8631 33.2842H70.3117L70.3288 33.0958C70.3288 32.7191 70.1861 32.4109 69.9007 32.1712C69.6268 31.9314 69.2386 31.8116 68.7364 31.8116C68.1998 31.8116 67.766 31.9371 67.435 32.1883C67.1039 32.4394 66.9384 32.7819 66.9384 33.2157C66.9384 33.5011 67.0297 33.7522 67.2124 33.9691C67.4064 34.1746 67.6405 34.3573 67.9144 34.5171C68.1884 34.6655 68.5822 34.8595 69.0959 35.0993C69.7695 35.3961 70.3231 35.6758 70.7569 35.9383C71.1907 36.2009 71.5617 36.549 71.8699 36.9828C72.1782 37.4166 72.3323 37.9475 72.3323 38.5753C72.3323 39.2603 72.1439 39.871 71.7672 40.4075C71.4019 40.9441 70.8768 41.3664 70.1918 41.6747C69.5183 41.9715 68.7306 42.1199 67.8288 42.1199ZM77.989 42.1541C77.1785 42.1541 76.4593 41.9886 75.8315 41.6575C75.215 41.3265 74.7356 40.8584 74.3931 40.2534C74.0506 39.6484 73.8794 38.952 73.8794 38.1644C73.8794 37.0913 74.1305 36.1153 74.6328 35.2363C75.1465 34.3458 75.8429 33.6438 76.7219 33.1301C77.6123 32.6164 78.5997 32.3595 79.6842 32.3595C80.4947 32.3595 81.2139 32.5308 81.8418 32.8732C82.4811 33.2043 82.9719 33.6723 83.3144 34.2773C83.6683 34.8824 83.8452 35.5787 83.8452 36.3664C83.8452 37.4509 83.5884 38.4326 83.0747 39.3116C82.561 40.1906 81.8532 40.887 80.9514 41.4007C80.0609 41.903 79.0735 42.1541 77.989 42.1541ZM78.3144 40.0993C78.8851 40.0993 79.4045 39.9338 79.8726 39.6027C80.3406 39.2717 80.7059 38.8322 80.9685 38.2842C81.231 37.7363 81.3623 37.1598 81.3623 36.5548C81.3623 35.8698 81.1683 35.3447 80.7801 34.9794C80.4034 34.6027 79.924 34.4143 79.3418 34.4143C78.7596 34.4143 78.2402 34.5799 77.7835 34.9109C77.3383 35.242 76.9901 35.6872 76.739 36.2465C76.4879 36.7945 76.3623 37.3767 76.3623 37.9931C76.3623 38.6666 76.5392 39.1861 76.8931 39.5514C77.2584 39.9167 77.7322 40.0993 78.3144 40.0993ZM89.3195 29.3287L87.0763 42H84.6619L86.9051 29.3287H89.3195ZM100.061 32.5136L98.3833 42H95.986L96.1915 40.8014C95.8262 41.2123 95.3753 41.5377 94.8387 41.7774C94.3022 42.0057 93.7371 42.1199 93.1435 42.1199C92.1618 42.1199 91.3855 41.8573 90.8147 41.3322C90.2439 40.7957 89.9585 40.0365 89.9585 39.0548C89.9585 38.6895 89.9871 38.3641 90.0442 38.0787L91.0202 32.5136H93.4175L92.4928 37.7363C92.4586 37.9418 92.4414 38.1415 92.4414 38.3356C92.4414 38.895 92.5956 39.3287 92.9038 39.637C93.212 39.9338 93.6458 40.0822 94.2052 40.0822C94.8558 40.0822 95.4095 39.8824 95.8661 39.4829C96.3227 39.0719 96.6138 38.4897 96.7394 37.7363L97.6641 32.5136H100.061ZM104.071 39.0719C104.059 39.1404 104.053 39.2317 104.053 39.3459C104.053 39.5742 104.116 39.7397 104.242 39.8425C104.379 39.9338 104.601 39.9794 104.91 39.9794H106.04L105.68 42H104.156C102.444 42 101.588 41.2865 101.588 39.8596C101.588 39.5856 101.61 39.3173 101.656 39.0548L102.461 34.4828H101.331L101.673 32.5136H102.821L103.231 30.1677H105.646L105.235 32.5136H107.341L106.999 34.4828H104.875L104.071 39.0719ZM110.487 31.3835C110.11 31.3835 109.807 31.275 109.579 31.0581C109.351 30.8412 109.237 30.5673 109.237 30.2362C109.237 29.7796 109.408 29.3915 109.75 29.0718C110.104 28.7408 110.515 28.5752 110.983 28.5752C111.348 28.5752 111.645 28.6837 111.874 28.9006C112.102 29.1175 112.216 29.3915 112.216 29.7225C112.216 30.1791 112.045 30.573 111.702 30.904C111.36 31.2237 110.955 31.3835 110.487 31.3835ZM111.48 32.5136L109.802 42H107.387L109.065 32.5136H111.48ZM116.4 42.1541C115.589 42.1541 114.87 41.9886 114.242 41.6575C113.626 41.3265 113.146 40.8584 112.804 40.2534C112.461 39.6484 112.29 38.952 112.29 38.1644C112.29 37.0913 112.541 36.1153 113.043 35.2363C113.557 34.3458 114.254 33.6438 115.133 33.1301C116.023 32.6164 117.01 32.3595 118.095 32.3595C118.905 32.3595 119.625 32.5308 120.252 32.8732C120.892 33.2043 121.383 33.6723 121.725 34.2773C122.079 34.8824 122.256 35.5787 122.256 36.3664C122.256 37.4509 121.999 38.4326 121.485 39.3116C120.972 40.1906 120.264 40.887 119.362 41.4007C118.472 41.903 117.484 42.1541 116.4 42.1541ZM116.725 40.0993C117.296 40.0993 117.815 39.9338 118.283 39.6027C118.751 39.2717 119.117 38.8322 119.379 38.2842C119.642 37.7363 119.773 37.1598 119.773 36.5548C119.773 35.8698 119.579 35.3447 119.191 34.9794C118.814 34.6027 118.335 34.4143 117.752 34.4143C117.17 34.4143 116.651 34.5799 116.194 34.9109C115.749 35.242 115.401 35.6872 115.15 36.2465C114.898 36.7945 114.773 37.3767 114.773 37.9931C114.773 38.6666 114.95 39.1861 115.304 39.5514C115.669 39.9167 116.143 40.0993 116.725 40.0993ZM130.025 32.3766C131.006 32.3766 131.777 32.6449 132.336 33.1814C132.907 33.7066 133.192 34.46 133.192 35.4417C133.192 35.807 133.164 36.1381 133.107 36.4349L132.114 42H129.734L130.658 36.7602C130.692 36.5548 130.71 36.355 130.71 36.1609C130.71 35.5901 130.555 35.1563 130.247 34.8595C129.95 34.5627 129.522 34.4143 128.963 34.4143C128.324 34.4143 127.776 34.6084 127.319 34.9965C126.874 35.3732 126.577 35.9212 126.429 36.6404L125.487 42H123.073L124.751 32.5136H127.165L126.96 33.678C127.348 33.2785 127.81 32.9645 128.347 32.7362C128.883 32.4965 129.442 32.3766 130.025 32.3766ZM138.109 42.1541C137.413 42.1541 136.779 42.04 136.208 41.8116C135.649 41.5719 135.204 41.2466 134.873 40.8356C134.553 40.4132 134.393 39.9338 134.393 39.3972C134.393 39.3173 134.405 39.1861 134.428 39.0034H136.756C136.722 39.4029 136.842 39.7283 137.116 39.9794C137.39 40.2192 137.778 40.339 138.28 40.339C138.737 40.339 139.114 40.2591 139.411 40.0993C139.719 39.9281 139.873 39.6826 139.873 39.363C139.873 39.0776 139.73 38.8493 139.445 38.6781C139.171 38.5068 138.731 38.3128 138.126 38.0959C137.521 37.879 137.019 37.6678 136.619 37.4623C136.22 37.2568 135.877 36.9714 135.592 36.6061C135.307 36.2408 135.164 35.7785 135.164 35.2191C135.164 34.6598 135.324 34.1632 135.643 33.7294C135.974 33.2956 136.431 32.9588 137.013 32.7191C137.595 32.4794 138.263 32.3595 139.017 32.3595C139.736 32.3595 140.369 32.4794 140.917 32.7191C141.465 32.9588 141.888 33.2956 142.185 33.7294C142.493 34.1518 142.647 34.6369 142.647 35.1849C142.647 35.3219 142.641 35.4246 142.63 35.4931H140.404C140.438 35.0936 140.324 34.7739 140.061 34.5342C139.799 34.2945 139.416 34.1746 138.914 34.1746C138.503 34.1746 138.166 34.2659 137.904 34.4486C137.641 34.6198 137.51 34.8538 137.51 35.1506C137.51 35.4474 137.658 35.6929 137.955 35.8869C138.252 36.0696 138.709 36.2751 139.325 36.5034C139.941 36.7431 140.432 36.9657 140.798 37.1712C141.174 37.3653 141.5 37.6392 141.774 37.9931C142.048 38.3356 142.185 38.7694 142.185 39.2945C142.185 39.8767 142.008 40.3847 141.654 40.8185C141.3 41.2523 140.815 41.5833 140.198 41.8116C139.582 42.04 138.885 42.1541 138.109 42.1541Z" fill="white"/>
<circle cx="21.794" cy="4.8021" r="4.0633" fill="white"/>
<circle cx="32.137" cy="48.3903" r="4.0633" fill="white"/>
<circle cx="4.80204" cy="31.3983" r="4.0633" fill="white"/>
<circle cx="49.129" cy="21.7941" r="4.0633" fill="white"/>
<circle cx="7.01837" cy="22.5329" r="3.32452" fill="white"/>
<circle cx="7.01837" cy="41.0025" r="3.32452" fill="white"/>
<circle cx="23.2716" cy="46.1739" r="3.32452" fill="white"/>
<circle cx="41.7412" cy="46.1739" r="3.32452" fill="white"/>
<circle cx="46.9126" cy="30.6595" r="3.32452" fill="white"/>
<circle cx="46.9126" cy="12.1899" r="3.32452" fill="white"/>
<circle cx="31.3982" cy="7.01843" r="3.32452" fill="white"/>
<circle cx="12.9287" cy="7.01843" r="3.32452" fill="white"/>
<circle cx="11.8205" cy="16.2532" r="2.21635" fill="white"/>
<circle cx="16.992" cy="41.3719" r="2.21635" fill="white"/>
<circle cx="11.8205" cy="47.2821" r="2.21635" fill="white"/>
<circle cx="42.1106" cy="36.9392" r="2.21635" fill="white"/>
<circle cx="48.0208" cy="41.3719" r="2.21635" fill="white"/>
<circle cx="37.6779" cy="11.8206" r="2.21635" fill="white"/>
<circle cx="42.1106" cy="5.91026" r="2.21635" fill="white"/>
<circle cx="5.9102" cy="11.8206" r="2.21635" fill="white"/>
<circle cx="17.7308" cy="12.5593" r="1.47757" fill="white"/>
<circle cx="13.298" cy="36.2004" r="1.47757" fill="white"/>
<circle cx="2.95508" cy="16.9921" r="1.47757" fill="white"/>
<circle cx="40.633" cy="16.9921" r="1.47757" fill="white"/>
<circle cx="36.9391" cy="2.21637" r="1.47757" fill="white"/>
<circle cx="36.9391" cy="40.6331" r="1.47757" fill="white"/>
<circle cx="51.7147" cy="36.2004" r="1.47757" fill="white"/>
<circle cx="17.7308" cy="50.976" r="1.47757" fill="white"/>
<circle cx="21.6094" cy="11.2665" r="0.923478" fill="white"/>
<circle cx="32.691" cy="0.923509" r="0.923478" fill="white"/>
<circle cx="42.2953" cy="20.8706" r="0.923478" fill="white"/>
<circle cx="53.377" cy="31.9524" r="0.923478" fill="white"/>
<circle cx="32.691" cy="41.5566" r="0.923478" fill="white"/>
<circle cx="21.6094" cy="51.8995" r="0.923478" fill="white"/>
<circle cx="12.0051" cy="31.9524" r="0.923478" fill="white"/>
<circle cx="0.923433" cy="20.8706" r="0.923478" fill="white"/>
</svg>
